<svg width="32" height="32" viewBox="0 0 32 32" fill="none" xmlns="http://www.w3.org/2000/svg">
<circle cx="16" cy="16" r="13" fill="#5790FF"/>
<path d="M29 16C29 23.1797 23.1797 29 16 29C8.8203 29 3 23.1797 3 16C3 8.8203 8.8203 3 16 3C23.1797 3 29 8.8203 29 16Z" fill="white" fill-opacity="0.1"/>
<g filter="url(#filter0_d)">
<path d="M22.8 16C22.8 18.0149 22.8 19.3195 22.8 22.4979C22.8 22.5942 22.674 22.6357 22.6122 22.5619C21.081 20.7349 19.6447 21.7594 19.25 21.9745C18.2844 22.5009 17.1771 22.8 16 22.8C12.2444 22.8 9.19995 19.7555 9.19995 16C9.19995 12.2445 12.2444 9.2 16 9.2C19.7555 9.2 22.8 12.2445 22.8 16Z" fill="white"/>
</g>
<path fill-rule="evenodd" clip-rule="evenodd" d="M18.3473 15.4968C18.2207 15.5315 18.0875 15.55 17.95 15.55C17.1216 15.55 16.45 14.8784 16.45 14.05C16.45 13.9125 16.4685 13.7793 16.5031 13.6528C16.3409 13.6182 16.1726 13.6 16.0001 13.6C14.6746 13.6 13.6001 14.6745 13.6001 16C13.6001 17.3255 14.6746 18.4 16.0001 18.4C17.3256 18.4 18.4001 17.3255 18.4001 16C18.4001 15.8274 18.3819 15.6591 18.3473 15.4968Z" fill="#5790FF"/>
<defs>
<filter id="filter0_d" x="8.79995" y="9.2" width="15.2" height="15.2" filterUnits="userSpaceOnUse" color-interpolation-filters="sRGB">
<feFlood flood-opacity="0" result="BackgroundImageFix"/>
<feColorMatrix in="SourceAlpha" type="matrix" values="0 0 0 0 0 0 0 0 0 0 0 0 0 0 0 0 0 0 127 0"/>
<feOffset dx="0.4" dy="0.8"/>
<feGaussianBlur stdDeviation="0.4"/>
<feColorMatrix type="matrix" values="0 0 0 0 0.661129 0 0 0 0 0.147292 0 0 0 0 0.841667 0 0 0 0.08 0"/>
<feBlend mode="normal" in2="BackgroundImageFix" result="effect1_dropShadow"/>
<feBlend mode="normal" in="SourceGraphic" in2="effect1_dropShadow" result="shape"/>
</filter>
</defs>
</svg>
